<?xml version="1.0" encoding="utf-8"?>
<!-- Generator: Adobe Illustrator 16.0.0, SVG Export Plug-In . SVG Version: 6.00 Build 0)  -->
<!DOCTYPE svg PUBLIC "-//W3C//DTD SVG 1.1//EN" "http://www.w3.org/Graphics/SVG/1.1/DTD/svg11.dtd">
<svg version="1.1" id="Layer_1" xmlns="http://www.w3.org/2000/svg" xmlns:xlink="http://www.w3.org/1999/xlink" x="0px" y="0px"
	 width="18px" height="17px" viewBox="0 0 780 441" enable-background="new 0 0 780 441" xml:space="preserve">
<path fill="#087d8e" d="M390,352.8c-97.267,0-176.4-78.216-176.4-174.354c-0.094-38.493,12.768-75.897,36.515-106.193l11.29-14.5
	l29.318,22.297l-11.29,14.5c-18.766,23.932-28.932,53.484-28.859,83.896c0,75.993,62.552,137.804,139.392,137.804
	s139.427-61.846,139.427-137.804c0.072-30.412-10.094-59.964-28.859-83.896l-11.29-14.5l29.318-22.297l11.289,14.5
	c23.76,30.291,36.634,67.696,36.551,106.193C566.4,274.584,487.267,352.8,390,352.8z"/>
<rect x="366.468" fill="#087d8e" width="37.008" height="188.607"/>
</svg>
