<?xml version="1.0" ?><!DOCTYPE svg  PUBLIC '-//W3C//DTD SVG 1.1//EN'  'http://www.w3.org/Graphics/SVG/1.1/DTD/svg11.dtd'><svg height="78px" id="Layer_1" style="enable-background:new 0 0 78 78;" version="1.1" viewBox="0 0 78 78" width="78px" xml:space="preserve" xmlns="http://www.w3.org/2000/svg" xmlns:xlink="http://www.w3.org/1999/xlink"><path d="M72,4.5H6c-3.299,0-6,2.699-6,6V55.5c0,3.301,2.701,6,6,6h66c3.301,0,6-2.699,6-6V10.5  C78,7.2,75.301,4.5,72,4.5z M72,50.5H6V10.5h66V50.5z M52.5,67.5h-27c-1.66,0-3,1.341-3,3v3h33v-3C55.5,68.84,54.16,67.5,52.5,67.5z   M26.991,36.5H36v-12h-9.009v-6.729L15.264,30.5l11.728,12.728V36.5z M50.836,43.228L62.563,30.5L50.836,17.771V24.5h-9.009v12  h9.009V43.228z" style="fill:#fff;"/></svg>